<?xml version="1.0" standalone="no"?>
<svg viewBox="0 0 200 200" xmlns="http://www.w3.org/2000/svg">
  <path fill="#F8FAFC" d="M42.3,-72.2C56.1,-65.3,69.4,-56.5,72.8,-44.2C76.1,-31.9,69.4,-15.9,69.3,-0.1C69.1,15.8,75.5,31.5,71.1,42.1C66.8,52.6,51.7,58,38,61.6C24.4,65.2,12.2,67.1,-1.1,69C-14.4,71,-28.9,73,-42.9,69.6C-56.9,66.2,-70.5,57.4,-78.5,44.9C-86.6,32.4,-89.1,16.2,-87.1,1.1C-85.2,-13.9,-78.8,-27.9,-71.1,-41C-63.4,-54.1,-54.4,-66.4,-42.3,-74.3C-30.3,-82.3,-15.1,-85.9,-0.4,-85.1C14.2,-84.4,28.5,-79.2,42.3,-72.2Z" transform="translate(100 100)" />
</svg>
